<svg xmlns="http://www.w3.org/2000/svg" style="display: none;">
 <symbol id="basket3" fill="currentColor" viewBox="0 0 16 16">
  <path d="M5.757 1.071a.5.5 0 0 1 .172.686L3.383 6h9.234L10.07 1.757a.5.5 0 1 1 .858-.514L13.783 6H15.5a.5.5 0 0 1 .5.5v1a.5.5 0 0 1-.5.5H.5a.5.5 0 0 1-.5-.5v-1A.5.5 0 0 1 .5 6h1.717L5.07 1.243a.5.5 0 0 1 .686-.172zM3.394 15l-1.48-6h-.97l1.525 6.426a.75.75 0 0 0 .729.574h9.606a.75.75 0 0 0 .73-.574L15.056 9h-.972l-1.479 6z"/>
</symbol>
<symbol id="bag" viewBox="0 0 16 16">
  <path d="M8 1a2.5 2.5 0 0 1 2.5 2.5V4h-5v-.5A2.5 2.5 0 0 1 8 1m3.5 3v-.5a3.5 3.5 0 1 0-7 0V4H1v10a2 2 0 0 0 2 2h10a2 2 0 0 0 2-2V4zM2 5h12v9a1 1 0 0 1-1 1H3a1 1 0 0 1-1-1z"/>
</symbol>
<symbol id="bag-lg" viewBox="0 0 16 14">
  <path d="m 8,0.75077825 a 2.8571428,1.8748702 0 0 1 2.857143,1.87487005 v 0.374974 H 5.1428572 V 2.6256483 A 2.8571428,1.8748702 0 0 1 8,0.75077825 m 4,2.24984405 v -0.374974 a 4.0000002,2.6248183 0 1 0 -7.9999999,0 v 0.374974 H 0 V 10.500103 A 2.2857144,1.4998961 0 0 0 2.2857144,12 H 13.714286 A 2.2857144,1.4998961 0 0 0 16,10.500103 V 3.0006223 Z M 1.1428571,3.7505705 H 14.857144 v 6.7495325 a 1.1428571,0.74994807 0 0 1 -1.142858,0.74995 H 2.2857144 a 1.1428571,0.74994807 0 0 1 -1.1428573,-0.74995 z"/>
</symbol> </svg>